@startuml screens
state Screens{
  [*] --> top
  [*] --> configure
  [*] --> userlist
  [*] --> user_new
  [*] --> mypage

  state Contests{
    cont_XXX: Get contest's information (including API's URL)
  }

  top --> cont_XXX

  configure: For admin\nConfigure contest

  userlist: User list

  user_new: Only activated not logged in

  mypage --> mypage: Configure
  mypage --> cont_XXX: Participating
  mypage: Only activated logged in
}

@enduml